<?xml version="1.0" encoding="utf-8"?>
<!-- Generated by IcoMoon.io -->
<!DOCTYPE svg PUBLIC "-//W3C//DTD SVG 1.1//EN" "http://www.w3.org/Graphics/SVG/1.1/DTD/svg11.dtd">
<svg version="1.1" xmlns="http://www.w3.org/2000/svg" xmlns:xlink="http://www.w3.org/1999/xlink" width="32" height="32" viewBox="0 0 32 32">
<g>
	<line stroke-width="1" x1="" y1="" x2="" y2="" stroke="#449FDB" opacity=""></line>
</g>
	<path d="M30.068 10.488c-2.091-5.132-6.938-9.599-14.35-9.504-0.475 0-0.95 0.095-1.426 0.095-1.14 0.19-2.186 0.38-3.136 0.76-4.277 1.616-7.413 4.562-9.028 8.933-0.38 0.95-0.57 1.996-0.76 3.041-0.38 2.091-0.095 4.657 0.475 6.367 1.426 4.657 4.372 7.888 8.648 9.694 1.045 0.475 2.281 0.76 3.611 1.045 0.475 0 0.855 0.095 1.331 0.095s1.045 0 1.521 0c1.426-0.19 2.661-0.38 3.896-0.76 4.467-1.426 7.698-4.657 9.409-8.933 1.235-3.136 1.14-7.603-0.19-10.834zM13.342 29.875c-0.57-0.095-1.045-0.285-1.616-0.38v-1.331h1.616v1.711zM16.668 30.16c-0.57 0-1.045 0-1.616 0v-1.901h1.616v1.901zM20.089 29.59c-0.475 0.095-0.95 0.285-1.616 0.38v-1.711h1.616v1.331zM21.895 16.285v12.64c-0.285 0.285-0.95 0.475-1.331 0.57 0-0.38 0.095-1.235-0.095-1.521-0.19-0.19-1.996-0.285-2.281-0.095s-0.19 1.711-0.19 2.186c-0.285 0-0.57 0.095-0.855 0.095 0-0.57 0.095-2.091-0.19-2.281-0.19-0.095-0.57-0.095-0.855-0.095-0.38 0-0.76 0-1.14 0-0.475 0.19-0.285 1.711-0.285 2.281-0.285 0-0.57-0.095-0.855-0.095 0-0.57 0.095-1.996-0.19-2.186s-2.091-0.095-2.186 0.095c-0.19 0.285-0.095 1.045-0.095 1.426-0.475-0.19-0.855-0.38-1.331-0.57v-12.925h7.888c0.475 0 2.756 0.095 3.041 0 0.095 0 0.095-0.095 0.095-0.095v-0.095c0 0-0.095-0.095-0.095-0.095-3.136 0-6.272 0-9.504 0-0.76 0-2.946 0.285-2.851-0.475 0-0.19 0.19-0.285 0.285-0.38 1.045 0 1.996 0 3.041 0h8.648c0.76 0 2.566-0.19 2.661 0.38 0.19 0.855-0.855 0.38-1.235 0.57-0.19-0.095-0.095 0.285-0.095 0.665zM29.783 19.706c-1.236 4.182-3.706 7.318-7.413 9.028v-12.925c0.285 0 0.475 0 0.76 0 0.855-0.285 0.665-1.616-0.19-1.711h-10.359c-0.855 0-3.611-0.19-4.087 0.095-0.57 0.38-0.475 1.331 0.095 1.616 0.19 0.095 0.475 0.095 0.855 0.095v12.735c-3.611-1.996-6.082-5.417-7.223-9.789-0.475-1.996-0.285-4.847 0.285-6.557 1.33-4.467 3.992-7.508 7.983-9.218 0.95-0.38 1.996-0.76 3.041-0.95 0.57-0.095 1.14-0.19 1.711-0.19 0.38 0 0.855 0 1.235 0 0.475 0 0.95 0.095 1.426 0.095 0.76 0.19 1.616 0.285 2.281 0.475 3.991 1.236 6.557 3.706 8.458 7.033 0.57 0.95 0.95 2.186 1.236 3.326 0.57 1.996 0.475 4.942-0.095 6.843zM15.908 6.591c-2.186 1.711-4.277 3.326-6.462 5.037-0.57 0.475-1.236 0.95-1.806 1.426-0.285 0.19-0.665 0.38-0.855 0.665v0.19c0 0.095 0.095 0.095 0.19 0.19 0.38 0 2.091-1.616 2.566-1.901 2.186-1.711 4.277-3.326 6.462-5.037 2.946 2.281 5.987 4.562 8.933 6.938h0.19c0.095 0 0.095-0.095 0.095-0.095v-0.095c-2.281-1.806-4.562-3.516-6.843-5.322-0.38-0.57-1.996-1.996-2.471-1.996zM17.238 9.157c0-0.19-0.95-0.95-1.236-0.95-0.095 0.095-0.19 0.095-0.095 0.285s0.95 0.855 1.236 0.855c0-0.095 0-0.095 0.095-0.19zM17.904 9.633c0 0-0.095 0.095-0.095 0.095v0.19c0.19 0.38 0.76 0.665 1.045 0.855 0.855 0.665 1.711 1.331 2.566 2.091v0c-1.045 0-2.091 0-3.136 0-0.19-0.95-0.57-1.521-1.331-1.901-1.521-0.665-3.041 0.475-3.136 1.901h-2.946c-0.38 0-0.95-0.095-1.045 0.095v0.19c0 0 0.095 0.095 0.095 0.095 1.045 0 2.091 0 3.136 0 0.285 0 0.95 0.095 1.14 0 0.095 0 0.38-1.14 0.475-1.331 0.76-0.95 2.376-0.855 2.946 0.19 0.19 0.285 0.19 0.95 0.38 1.14 0.855 0 1.711 0 2.566 0 0.57 0 1.331 0.095 1.711 0 0 0 0-0.095 0-0.095 0-0.095 0-0.095 0-0.19-0.855-0.855-2.186-1.711-3.136-2.471-0.285-0.19-0.76-0.855-1.236-0.855zM13.722 17.521c-0.19-0.38-1.521-0.19-2.091-0.19-0.475 0.285-0.38 1.14-0.38 1.901 0 1.711-0.38 1.901 1.426 1.901 0.285 0 0.665 0.095 0.855 0 0.38-0.19 0.19-2.091 0.19-2.756 0.095-0.285 0.095-0.665 0-0.855zM13.342 20.752h-1.616v-2.946h1.616v2.946zM17.048 17.521c-0.19-0.38-1.521-0.19-2.091-0.19-0.475 0.285-0.38 1.14-0.38 1.901 0 1.711-0.38 1.901 1.426 1.901 0.285 0 0.665 0.095 0.855 0 0.475-0.19 0.285-2.091 0.285-2.756 0-0.285 0.095-0.665-0.095-0.855zM16.668 20.752h-1.616v-2.946h1.616v2.946zM20.47 17.521c-0.19-0.38-1.521-0.19-2.091-0.19-0.475 0.285-0.38 1.14-0.38 1.901 0 1.711-0.38 1.901 1.426 1.901 0.285 0 0.665 0.095 0.855 0 0.38-0.19 0.19-2.091 0.19-2.756 0.095-0.285 0.095-0.665 0-0.855zM20.089 20.752h-1.616v-2.946h1.616v2.946zM13.722 22.748c-0.19-0.38-1.521-0.19-2.091-0.19-0.475 0.285-0.38 1.14-0.38 1.901 0 1.711-0.38 1.901 1.426 1.901 0.285 0 0.665 0.095 0.855 0 0.38-0.19 0.19-2.091 0.19-2.756 0.095-0.285 0.095-0.76 0-0.855zM13.342 25.884h-1.616v-2.946h1.616v2.946zM17.048 22.748c-0.19-0.38-1.521-0.19-2.091-0.19-0.475 0.285-0.38 1.14-0.38 1.901 0 1.711-0.38 1.901 1.426 1.901 0.285 0 0.665 0.095 0.855 0 0.38-0.19 0.19-2.091 0.19-2.756 0.095-0.285 0.19-0.76 0-0.855zM16.668 25.884h-1.616v-2.946h1.616v2.946zM20.47 22.748c-0.19-0.38-1.521-0.19-2.091-0.19-0.475 0.285-0.38 1.14-0.38 1.901 0 1.711-0.38 1.901 1.426 1.901 0.285 0 0.665 0.095 0.855 0 0.38-0.19 0.19-2.091 0.19-2.756 0.095-0.285 0.095-0.76 0-0.855zM20.089 25.884h-1.616v-2.946h1.616v2.946z" fill="#ffffff"></path>
</svg>
