<?xml version="1.0" encoding="utf-8"?>
<!-- Generated by IcoMoon.io -->
<!DOCTYPE svg PUBLIC "-//W3C//DTD SVG 1.1//EN" "http://www.w3.org/Graphics/SVG/1.1/DTD/svg11.dtd">
<svg version="1.1" xmlns="http://www.w3.org/2000/svg" xmlns:xlink="http://www.w3.org/1999/xlink" width="32" height="32" viewBox="0 0 32 32">
<g>
	<line stroke-width="1" x1="" y1="" x2="" y2="" stroke="#449FDB" opacity=""></line>
</g>
	<path d="M29.934 10.432c-2.092-5.196-7.019-9.561-14.419-9.448-0.562 0.045-1.125 0.112-1.687 0.157-1.057 0.202-2.115 0.405-3.037 0.765-4.229 1.642-7.244 4.657-8.886 8.886-0.337 0.877-0.54 1.89-0.742 2.879-0.427 2.182-0.090 4.791 0.45 6.546 1.395 4.612 4.387 7.851 8.593 9.628 1.057 0.45 2.272 0.765 3.554 1.012 0.517 0.045 1.012 0.090 1.53 0.135 0.472 0 0.945 0.023 1.417 0.023 1.507-0.225 2.812-0.36 4.072-0.765 4.229-1.327 7.491-4.634 9.133-8.548 1.44-3.397 1.417-7.873 0.023-11.27zM11.173 29.261c-0.945-0.18-1.642-0.832-2.452-1.147 0.292-1.237 0.607-2.474 0.9-3.712 0.135-0.495 0.135-1.102 0.517-1.35 0.090 0.023 0.202 0.023 0.292 0.045 0.292 0.45 0.202 1.237 0.315 1.89 0.135 1.395 0.292 2.812 0.427 4.207v0.067zM13.715 29.936c0.427-1.71 0.832-3.397 1.26-5.106 0.18-0.697 0.18-1.62 0.742-1.957 0.112 0 0.18 0 0.247 0.045 0.247 0.157 0.292 1.35 0.36 1.732 0.292 1.8 0.562 3.622 0.855 5.421-1.17 0.067-2.429 0-3.464-0.135zM19.834 29.598c0.315-1.327 0.517-2.744 0.81-4.139 0.135-0.675 0.090-1.372 0.517-1.732h0.292c0.292 0.292 0.247 0.967 0.337 1.462 0.18 1.147 0.36 2.272 0.54 3.419-0.36 0.382-1.867 0.787-2.497 0.99zM29.821 18.958c-0.652 2.564-1.665 4.409-3.059 6.164-0.472 0.585-1.642 1.867-2.317 2.182-0.023 0.023-0.023 0.023-0.045 0.045-0.18-3.329-0.382-6.636-0.562-9.965-0.045-0.023-0.112-0.067-0.157-0.090-0.157 0-0.18 0.045-0.247 0.135 0.18 3.419 0.337 6.839 0.517 10.258-0.405 0.247-0.787 0.472-1.192 0.72-0.202-1.327-0.427-2.654-0.63-3.982-0.112-0.607-0.135-1.327-1.012-1.147-0.765 0.157-0.697 0.967-0.855 1.732-0.202 1.125-0.427 2.227-0.63 3.352-0.090 0.45-0.202 0.877-0.292 1.327-0.045 0.045-0.135 0.067-0.202 0.090h-0.090c-0.247-4.409-0.472-8.818-0.72-13.227-0.135-0.090-0.18-0.112-0.337-0.067-0.135 0.247 0 2.834 0.067 3.352 0.18 3.307 0.36 6.614 0.54 9.92v0.135c-0.337 0.045-0.652 0.090-0.99 0.135-0.292-1.957-0.607-3.892-0.9-5.849-0.135-0.72-0.023-1.597-0.742-1.755-1.035-0.225-1.102 1.012-1.282 1.71-0.472 1.912-0.922 3.802-1.395 5.714-0.292-0.067-0.607-0.112-0.9-0.18 0.472-4.454 0.945-8.908 1.417-13.362-0.045-0.045-0.090-0.067-0.135-0.112-0.067 0-0.112-0.023-0.18-0.023-0.023 0-0.023 0.023-0.045 0.023-0.135 0.247-0.090 0.607-0.157 0.945-0.112 0.967-0.202 1.957-0.315 2.924-0.337 3.149-0.697 6.321-1.035 9.471-0.090-0.023-0.157-0.067-0.247-0.090-0.157-0.112-0.157-1.417-0.202-1.732-0.112-1.147-0.247-2.272-0.36-3.419-0.112-0.675-0.023-1.305-0.495-1.597-0.382-0.225-0.922-0.023-1.080 0.247-0.27 0.427-0.292 1.080-0.427 1.597-0.27 1.102-0.54 2.205-0.81 3.307-0.337-0.247-0.697-0.472-1.035-0.72-0.112-0.27 0.18-2.182 0.247-2.609 0.27-2.609 0.54-5.219 0.81-7.828-0.045-0.090-0.045-0.090-0.135-0.135s-0.135 0-0.225 0.023c-0.292 0.54-0.225 2.182-0.36 2.924-0.27 2.407-0.517 4.814-0.787 7.221h-0.022c-3.487-2.609-6.186-8.931-4.297-14.937 1.17-3.689 3.869-6.929 7.221-8.413 1.012-0.45 2.047-0.877 3.239-1.17 0.675-0.18 1.327-0.135 2.092-0.27 0.472-0.022 0.945-0.022 1.417-0.045 0.405 0.022 0.787 0.067 1.192 0.090 0.9 0.157 1.755 0.292 2.542 0.54 4.297 1.35 7.378 4.364 8.976 8.413 0.337 0.877 0.562 1.845 0.765 2.857 0.157 0.81 0.292 1.957 0.135 2.879-0.135 0.832-0.067 1.552-0.27 2.294zM16.032 11.692c2.092-0.382 2.047-4.274-0.292-4.252-0.855 0.36-1.282 0.54-1.53 1.507-0.315 1.26 0.517 2.992 1.822 2.744zM14.615 9.218c0.157-0.765 0.495-1.035 1.125-1.327 1.777-0.022 1.755 3.037 0.27 3.352-0.922 0.202-1.575-1.125-1.395-2.025zM10.475 12.21c2.092-0.36 2.070-4.184-0.292-4.139-0.81 0.337-1.237 0.63-1.462 1.53-0.292 1.215 0.585 2.812 1.755 2.609zM9.148 9.758c0.157-0.697 0.472-0.967 1.057-1.237 1.755-0.023 1.732 2.969 0.247 3.239-0.877 0.157-1.485-1.102-1.305-2.002zM21.386 12.547c2.294-0.315 2.272-4.297-0.225-4.252-0.765 0.337-1.215 0.63-1.44 1.507-0.292 1.192 0.517 2.902 1.665 2.744zM20.193 9.78c0.18-0.562 0.495-0.787 0.99-1.035 1.935-0.045 1.845 3.262 0.202 3.352-0.99 0.045-1.485-1.327-1.192-2.317zM23.073 13.627c-1.125-0.405-2.902-0.382-3.757 0.247-0.697-0.945-2.137-1.395-3.802-1.372-0.495 0.202-1.012 0.157-1.44 0.337-0.315 0.18-0.607 0.337-0.922 0.517-0.090 0.090-0.18 0.157-0.27 0.247-0.157 0.045-0.427-0.202-0.54-0.247-0.495-0.225-1.057-0.27-1.687-0.382-0.54-0.090-1.147 0.067-1.53 0.18-1.935 0.585-2.969 1.98-3.487 3.982-0.36 1.372-0.135 3.059 0.315 4.162 0.135 0.315 0.27 0.832 0.562 0.99 0.045 0 0.112 0.023 0.157 0.023 0.045-0.045 0.090-0.090 0.135-0.135 0.045-0.337-0.337-0.742-0.472-1.057-0.27-0.652-0.315-1.327-0.45-2.137-0.135-0.855 0.18-1.867 0.405-2.452 0.652-1.665 2.205-3.554 4.791-3.059 0.54 0.112 0.945 0.315 1.395 0.45 0 0.023 0.023 0.023 0.023 0.045-1.305 0.967-2.070 4.117-1.417 6.321 0.135 0.427 0.562 1.89 1.012 1.8 0.067-0.045 0.067-0.045 0.112-0.112 0.090-0.247-0.225-0.562-0.315-0.742-0.27-0.54-0.427-1.17-0.562-1.845-0.135-0.652-0.045-1.53 0.067-2.115 0.472-2.227 1.53-3.802 3.757-4.274 3.487-0.72 5.871 2.857 5.219 6.344-0.135 0.787-0.337 1.462-0.652 2.070-0.112 0.225-0.472 0.562-0.427 0.832 0.045 0.090 0.045 0.090 0.135 0.135 0.382 0.112 0.855-1.17 0.99-1.485 0.967-2.429 0.337-5.039-0.81-6.704 0.765-0.495 2.317-0.472 3.239-0.157 2.092 0.72 3.014 2.452 3.104 5.174 0.023 1.102-0.247 2.137-0.63 2.879-0.157 0.315-0.472 0.607-0.54 0.967 0.090 0.135 0.090 0.18 0.315 0.18 0.517-0.382 0.787-1.282 0.99-1.957 1.080-3.464-0.427-6.749-3.014-7.648z" fill="#ffffff"></path>
</svg>
